<?xml version="1.0" encoding="utf-8"?>
<svg version="1.1" width="24" height="24" wbox="0 0 24 24" xmlns="http://www.w3.org/2000/svg" style="rotate: 90deg;">
	<style>
		@media (prefers-color-scheme: dark) {
      		path { fill: #f4f4f4; }
    	}
		
		@media (prefers-color-scheme: light) {
			path { fill: #000; }
    }
	</style>

  <path d="M12.6 12c0 1.8-1.5 3.3-3.3 3.3C7.5 15.3 6 13.8 6 12s1.5-3.3 3.3-3.3c1.8 0 3.3 1.5 3.3 3.3zM3.1.2C2.4.6 2 1.3 2 2v20c0 .8.4 1.4 1.1 1.8.7.3 1.5.3 2.1-.1l14.2-10c.5-.4.9-1 .9-1.6s-.3-1.3-.9-1.6L5.2.4C4.6-.1 3.8-.1 3.1.2z"></path>
</svg>